<?xml version="1.0" standalone="no"?>
<svg xmlns:xlink="http://www.w3.org/1999/xlink" id="wave" style="transform:rotate(0deg); transition: 0.3s" viewBox="0 0 1440 190" version="1.1" xmlns="http://www.w3.org/2000/svg"><defs><linearGradient id="sw-gradient-0" x1="0" x2="0" y1="1" y2="0"><stop stop-color="rgba(135, 119, 181, 1)" offset="0%"/><stop stop-color="rgba(135, 119, 181, 1)" offset="100%"/></linearGradient></defs><path style="transform:translate(0, 0px); opacity:1" fill="url(#sw-gradient-0)" d="M0,57L40,50.7C80,44,160,32,240,38C320,44,400,70,480,91.8C560,114,640,133,720,136.2C800,139,880,127,960,114C1040,101,1120,89,1200,79.2C1280,70,1360,63,1440,60.2C1520,57,1600,57,1680,69.7C1760,82,1840,108,1920,107.7C2000,108,2080,82,2160,88.7C2240,95,2320,133,2400,123.5C2480,114,2560,57,2640,31.7C2720,6,2800,13,2880,19C2960,25,3040,32,3120,28.5C3200,25,3280,13,3360,15.8C3440,19,3520,38,3600,41.2C3680,44,3760,32,3840,50.7C3920,70,4000,120,4080,139.3C4160,158,4240,146,4320,142.5C4400,139,4480,146,4560,136.2C4640,127,4720,101,4800,76C4880,51,4960,25,5040,38C5120,51,5200,101,5280,117.2C5360,133,5440,114,5520,101.3C5600,89,5680,82,5720,79.2L5760,76L5760,190L5720,190C5680,190,5600,190,5520,190C5440,190,5360,190,5280,190C5200,190,5120,190,5040,190C4960,190,4880,190,4800,190C4720,190,4640,190,4560,190C4480,190,4400,190,4320,190C4240,190,4160,190,4080,190C4000,190,3920,190,3840,190C3760,190,3680,190,3600,190C3520,190,3440,190,3360,190C3280,190,3200,190,3120,190C3040,190,2960,190,2880,190C2800,190,2720,190,2640,190C2560,190,2480,190,2400,190C2320,190,2240,190,2160,190C2080,190,2000,190,1920,190C1840,190,1760,190,1680,190C1600,190,1520,190,1440,190C1360,190,1280,190,1200,190C1120,190,1040,190,960,190C880,190,800,190,720,190C640,190,560,190,480,190C400,190,320,190,240,190C160,190,80,190,40,190L0,190Z"/></svg>