<?xml version="1.0" standalone="no"?>
<svg xmlns:xlink="http://www.w3.org/1999/xlink" id="wave" style="transform:rotate(180deg); transition: 0.3s" viewBox="0 0 1440 190" version="1.1" xmlns="http://www.w3.org/2000/svg"><defs><linearGradient id="sw-gradient-0" x1="0" x2="0" y1="1" y2="0"><stop stop-color="rgba(135, 119, 181, 1)" offset="0%"/><stop stop-color="rgba(135, 119, 181, 1)" offset="100%"/></linearGradient></defs><path style="transform:translate(0, 0px); opacity:1" fill="url(#sw-gradient-0)" d="M0,152L40,129.8C80,108,160,63,240,57C320,51,400,82,480,85.5C560,89,640,63,720,72.8C800,82,880,127,960,123.5C1040,120,1120,70,1200,44.3C1280,19,1360,19,1440,44.3C1520,70,1600,120,1680,133C1760,146,1840,120,1920,91.8C2000,63,2080,32,2160,38C2240,44,2320,89,2400,107.7C2480,127,2560,120,2640,104.5C2720,89,2800,63,2880,69.7C2960,76,3040,114,3120,133C3200,152,3280,152,3360,145.7C3440,139,3520,127,3600,126.7C3680,127,3760,139,3840,123.5C3920,108,4000,63,4080,66.5C4160,70,4240,120,4320,145.7C4400,171,4480,171,4560,158.3C4640,146,4720,120,4800,107.7C4880,95,4960,95,5040,101.3C5120,108,5200,120,5280,117.2C5360,114,5440,95,5520,72.8C5600,51,5680,25,5720,12.7L5760,0L5760,190L5720,190C5680,190,5600,190,5520,190C5440,190,5360,190,5280,190C5200,190,5120,190,5040,190C4960,190,4880,190,4800,190C4720,190,4640,190,4560,190C4480,190,4400,190,4320,190C4240,190,4160,190,4080,190C4000,190,3920,190,3840,190C3760,190,3680,190,3600,190C3520,190,3440,190,3360,190C3280,190,3200,190,3120,190C3040,190,2960,190,2880,190C2800,190,2720,190,2640,190C2560,190,2480,190,2400,190C2320,190,2240,190,2160,190C2080,190,2000,190,1920,190C1840,190,1760,190,1680,190C1600,190,1520,190,1440,190C1360,190,1280,190,1200,190C1120,190,1040,190,960,190C880,190,800,190,720,190C640,190,560,190,480,190C400,190,320,190,240,190C160,190,80,190,40,190L0,190Z"/><defs><linearGradient id="sw-gradient-1" x1="0" x2="0" y1="1" y2="0"><stop stop-color="rgba(87, 85, 161, 1)" offset="0%"/><stop stop-color="rgba(87, 85, 161, 1)" offset="100%"/></linearGradient></defs><path style="transform:translate(0, 50px); opacity:0.9" fill="url(#sw-gradient-1)" d="M0,57L40,63.3C80,70,160,82,240,72.8C320,63,400,32,480,15.8C560,0,640,0,720,6.3C800,13,880,25,960,38C1040,51,1120,63,1200,85.5C1280,108,1360,139,1440,133C1520,127,1600,82,1680,57C1760,32,1840,25,1920,38C2000,51,2080,82,2160,95C2240,108,2320,101,2400,101.3C2480,101,2560,108,2640,110.8C2720,114,2800,114,2880,123.5C2960,133,3040,152,3120,148.8C3200,146,3280,120,3360,107.7C3440,95,3520,95,3600,88.7C3680,82,3760,70,3840,72.8C3920,76,4000,95,4080,101.3C4160,108,4240,101,4320,95C4400,89,4480,82,4560,91.8C4640,101,4720,127,4800,123.5C4880,120,4960,89,5040,63.3C5120,38,5200,19,5280,25.3C5360,32,5440,63,5520,91.8C5600,120,5680,146,5720,158.3L5760,171L5760,190L5720,190C5680,190,5600,190,5520,190C5440,190,5360,190,5280,190C5200,190,5120,190,5040,190C4960,190,4880,190,4800,190C4720,190,4640,190,4560,190C4480,190,4400,190,4320,190C4240,190,4160,190,4080,190C4000,190,3920,190,3840,190C3760,190,3680,190,3600,190C3520,190,3440,190,3360,190C3280,190,3200,190,3120,190C3040,190,2960,190,2880,190C2800,190,2720,190,2640,190C2560,190,2480,190,2400,190C2320,190,2240,190,2160,190C2080,190,2000,190,1920,190C1840,190,1760,190,1680,190C1600,190,1520,190,1440,190C1360,190,1280,190,1200,190C1120,190,1040,190,960,190C880,190,800,190,720,190C640,190,560,190,480,190C400,190,320,190,240,190C160,190,80,190,40,190L0,190Z"/></svg>